#Comment line ignore any data following # character 
#Hierarchical Translation and Rotation (.htr) file 
[Header]	
#Header keywords are followed by a single value 
FileType HTR		#Single word string
DataType HTRS		#Translation followed by rotation and scale data
FileVersion 1		#integer
NumSegments 84		#integer
NumFrames 2		#integer
DataFrameRate 30		#integer, data frame rate in this file
EulerRotationOrder ZYX
CalibrationUnits mm
RotationUnits Degrees
GlobalAxisofGravity Y
BoneLengthAxis Y
ScaleFactor 1.00
[SegmentNames&Hierarchy]
#CHILD	PARENT
MASTER GLOBAL
root MASTER
chest root
L_mid_tent01 root
R_mid_tent01 root
spine01 root
Bip01_Neck chest
L_humerus chest
R_humerus chest
weapon_bone chest
Bip01_Head Bip01_Neck
eye_left_bone Bip01_Head
eye_right_bone Bip01_Head
L_forearm L_humerus
L_front_hand L_forearm
L_weapon_bone L_forearm
L_front_hand01_01 L_front_hand
L_front_hand02_01 L_front_hand
L_front_hand03_01 L_front_hand
L_front_hand01_02 L_front_hand01_01
L_front_hand02_02 L_front_hand02_01
L_front_hand03_02 L_front_hand03_01
R_forearm R_humerus
R_front_hand R_forearm
R_weapon_bone R_forearm
R_front_hand01_01 R_front_hand
R_front_hand02_01 R_front_hand
R_front_hand03_01 R_front_hand
R_front_hand01_02 R_front_hand01_01
R_front_hand02_02 R_front_hand02_01
R_front_hand03_02 R_front_hand03_01
null_rope01_connect L_mid_tent01
Rope1_Seg01 null_rope01_connect
Rope1_Seg02 Rope1_Seg01
Rope1_Seg03 Rope1_Seg02
Rope1_Seg04 Rope1_Seg03
Rope1_Seg05 Rope1_Seg04
Rope1_Seg06 Rope1_Seg05
Rope1_Seg07 Rope1_Seg06
Rope1_Seg09 Rope1_Seg07
L_mid_hand01 Rope1_Seg09
L_mid_hand02 Rope1_Seg09
L_mid_hand03 Rope1_Seg09
null_rope02_connect R_mid_tent01
Rope2_Seg01 null_rope02_connect
Rope2_Seg02 Rope2_Seg01
Rope2_Seg03 Rope2_Seg02
Rope2_Seg04 Rope2_Seg03
Rope2_Seg05 Rope2_Seg04
Rope2_Seg06 Rope2_Seg05
Rope2_Seg07 Rope2_Seg06
Rope2_Seg09 Rope2_Seg07
R_mid_hand01 Rope2_Seg09
R_mid_hand02 Rope2_Seg09
R_mid_hand03 Rope2_Seg09
spine02 spine01
spine03 spine02
pelvis spine03
null_rope03_connect pelvis
null_rope04_connect pelvis
Rope3_Seg01 null_rope03_connect
Rope3_Seg02 Rope3_Seg01
Rope3_Seg03 Rope3_Seg02
Rope3_Seg04 Rope3_Seg03
Rope3_Seg05 Rope3_Seg04
Rope3_Seg06 Rope3_Seg05
Rope3_Seg07 Rope3_Seg06
Rope3_Seg08 Rope3_Seg07
Rope3_Seg09 Rope3_Seg08
R_rear_hand01 Rope3_Seg09
R_rear_hand02 Rope3_Seg09
R_rear_hand03 Rope3_Seg09
Rope4_Seg01 null_rope04_connect
Rope4_Seg02 Rope4_Seg01
Rope4_Seg03 Rope4_Seg02
Rope4_Seg04 Rope4_Seg03
Rope4_Seg05 Rope4_Seg04
Rope4_Seg06 Rope4_Seg05
Rope4_Seg07 Rope4_Seg06
Rope4_Seg08 Rope4_Seg07
Rope4_Seg09 Rope4_Seg08
L_rear_hand01 Rope4_Seg09
L_rear_hand02 Rope4_Seg09
L_rear_hand03 Rope4_Seg09
[BasePosition]
#SegmentName Tx, Ty, Tz, Rx, Ry, Rz, BoneLength
MASTER 0.000000 0.000000 0.000000 -90.000000 0.000000 0.000000 10.000000 
root 0.000000 0.000000 0.000000 0.000000 0.000000 0.000000 10.000000 
chest 0.000000 0.000000 0.000000 0.000000 0.000000 0.000000 10.000000 
L_mid_tent01 0.000000 0.000000 0.000000 0.000000 0.000000 0.000000 10.000000 
R_mid_tent01 0.000000 0.000000 0.000000 0.000000 0.000000 0.000000 10.000000 
spine01 0.000000 0.000000 0.000000 0.000000 0.000000 0.000000 10.000000 
Bip01_Neck 0.000000 0.000000 0.000000 0.000000 0.000000 0.000000 10.000000 
L_humerus 0.000000 0.000000 0.000000 0.000000 0.000000 0.000000 10.000000 
R_humerus 0.000000 0.000000 0.000000 0.000000 0.000000 0.000000 10.000000 
weapon_bone 0.000000 0.000000 0.000000 0.000000 0.000000 0.000000 10.000000 
Bip01_Head 0.000000 0.000000 0.000000 0.000000 0.000000 0.000000 10.000000 
eye_left_bone 0.000000 0.000000 0.000000 0.000000 0.000000 0.000000 10.000000 
eye_right_bone 0.000000 0.000000 0.000000 0.000000 0.000000 0.000000 10.000000 
L_forearm 0.000000 0.000000 0.000000 0.000000 0.000000 0.000000 10.000000 
L_front_hand 0.000000 0.000000 0.000000 0.000000 0.000000 0.000000 10.000000 
L_weapon_bone 0.000000 0.000000 0.000000 0.000000 0.000000 0.000000 10.000000 
L_front_hand01_01 0.000000 0.000000 0.000000 0.000000 0.000000 0.000000 10.000000 
L_front_hand02_01 0.000000 0.000000 0.000000 0.000000 0.000000 0.000000 10.000000 
L_front_hand03_01 0.000000 0.000000 0.000000 0.000000 0.000000 0.000000 10.000000 
L_front_hand01_02 0.000000 0.000000 0.000000 0.000000 0.000000 0.000000 10.000000 
L_front_hand02_02 0.000000 0.000000 0.000000 0.000000 0.000000 0.000000 10.000000 
L_front_hand03_02 0.000000 0.000000 0.000000 0.000000 0.000000 0.000000 10.000000 
R_forearm 0.000000 0.000000 0.000000 0.000000 0.000000 0.000000 10.000000 
R_front_hand 0.000000 0.000000 0.000000 0.000000 0.000000 0.000000 10.000000 
R_weapon_bone 0.000000 0.000000 0.000000 0.000000 0.000000 0.000000 10.000000 
R_front_hand01_01 0.000000 0.000000 0.000000 0.000000 0.000000 0.000000 10.000000 
R_front_hand02_01 0.000000 0.000000 0.000000 0.000000 0.000000 0.000000 10.000000 
R_front_hand03_01 0.000000 0.000000 0.000000 0.000000 0.000000 0.000000 10.000000 
R_front_hand01_02 0.000000 0.000000 0.000000 0.000000 0.000000 0.000000 10.000000 
R_front_hand02_02 0.000000 0.000000 0.000000 0.000000 0.000000 0.000000 10.000000 
R_front_hand03_02 0.000000 0.000000 0.000000 0.000000 0.000000 0.000000 10.000000 
null_rope01_connect 0.000000 0.000000 0.000000 0.000000 0.000000 0.000000 10.000000 
Rope1_Seg01 0.000000 0.000000 0.000000 0.000000 0.000000 0.000000 10.000000 
Rope1_Seg02 0.000000 0.000000 0.000000 0.000000 0.000000 0.000000 10.000000 
Rope1_Seg03 0.000000 0.000000 0.000000 0.000000 0.000000 0.000000 10.000000 
Rope1_Seg04 0.000000 0.000000 0.000000 0.000000 0.000000 0.000000 10.000000 
Rope1_Seg05 0.000000 0.000000 0.000000 0.000000 0.000000 0.000000 10.000000 
Rope1_Seg06 0.000000 0.000000 0.000000 0.000000 0.000000 0.000000 10.000000 
Rope1_Seg07 0.000000 0.000000 0.000000 0.000000 0.000000 0.000000 10.000000 
Rope1_Seg09 0.000000 0.000000 0.000000 0.000000 0.000000 0.000000 10.000000 
L_mid_hand01 0.000000 0.000000 0.000000 0.000000 0.000000 0.000000 10.000000 
L_mid_hand02 0.000000 0.000000 0.000000 0.000000 0.000000 0.000000 10.000000 
L_mid_hand03 0.000000 0.000000 0.000000 0.000000 0.000000 0.000000 10.000000 
null_rope02_connect 0.000000 0.000000 0.000000 0.000000 0.000000 0.000000 10.000000 
Rope2_Seg01 0.000000 0.000000 0.000000 0.000000 0.000000 0.000000 10.000000 
Rope2_Seg02 0.000000 0.000000 0.000000 0.000000 0.000000 0.000000 10.000000 
Rope2_Seg03 0.000000 0.000000 0.000000 0.000000 0.000000 0.000000 10.000000 
Rope2_Seg04 0.000000 0.000000 0.000000 0.000000 0.000000 0.000000 10.000000 
Rope2_Seg05 0.000000 0.000000 0.000000 0.000000 0.000000 0.000000 10.000000 
Rope2_Seg06 0.000000 0.000000 0.000000 0.000000 0.000000 0.000000 10.000000 
Rope2_Seg07 0.000000 0.000000 0.000000 0.000000 0.000000 0.000000 10.000000 
Rope2_Seg09 0.000000 0.000000 0.000000 0.000000 0.000000 0.000000 10.000000 
R_mid_hand01 0.000000 0.000000 0.000000 0.000000 0.000000 0.000000 10.000000 
R_mid_hand02 0.000000 0.000000 0.000000 0.000000 0.000000 0.000000 10.000000 
R_mid_hand03 0.000000 0.000000 0.000000 0.000000 0.000000 0.000000 10.000000 
spine02 0.000000 0.000000 0.000000 0.000000 0.000000 0.000000 10.000000 
spine03 0.000000 0.000000 0.000000 0.000000 0.000000 0.000000 10.000000 
pelvis 0.000000 0.000000 0.000000 0.000000 0.000000 0.000000 10.000000 
null_rope03_connect 0.000000 0.000000 0.000000 0.000000 0.000000 0.000000 10.000000 
null_rope04_connect 0.000000 0.000000 0.000000 0.000000 0.000000 0.000000 10.000000 
Rope3_Seg01 0.000000 0.000000 0.000000 0.000000 0.000000 0.000000 10.000000 
Rope3_Seg02 0.000000 0.000000 0.000000 0.000000 0.000000 0.000000 10.000000 
Rope3_Seg03 0.000000 0.000000 0.000000 0.000000 0.000000 0.000000 10.000000 
Rope3_Seg04 0.000000 0.000000 0.000000 0.000000 0.000000 0.000000 10.000000 
Rope3_Seg05 0.000000 0.000000 0.000000 0.000000 0.000000 0.000000 10.000000 
Rope3_Seg06 0.000000 0.000000 0.000000 0.000000 0.000000 0.000000 10.000000 
Rope3_Seg07 0.000000 0.000000 0.000000 0.000000 0.000000 0.000000 10.000000 
Rope3_Seg08 0.000000 0.000000 0.000000 0.000000 0.000000 0.000000 10.000000 
Rope3_Seg09 0.000000 0.000000 0.000000 0.000000 0.000000 0.000000 10.000000 
R_rear_hand01 0.000000 0.000000 0.000000 0.000000 0.000000 0.000000 10.000000 
R_rear_hand02 0.000000 0.000000 0.000000 0.000000 0.000000 0.000000 10.000000 
R_rear_hand03 0.000000 0.000000 0.000000 0.000000 0.000000 0.000000 10.000000 
Rope4_Seg01 0.000000 0.000000 0.000000 0.000000 0.000000 0.000000 10.000000 
Rope4_Seg02 0.000000 0.000000 0.000000 0.000000 0.000000 0.000000 10.000000 
Rope4_Seg03 0.000000 0.000000 0.000000 0.000000 0.000000 0.000000 10.000000 
Rope4_Seg04 0.000000 0.000000 0.000000 0.000000 0.000000 0.000000 10.000000 
Rope4_Seg05 0.000000 0.000000 0.000000 0.000000 0.000000 0.000000 10.000000 
Rope4_Seg06 0.000000 0.000000 0.000000 0.000000 0.000000 0.000000 10.000000 
Rope4_Seg07 0.000000 0.000000 0.000000 0.000000 0.000000 0.000000 10.000000 
Rope4_Seg08 0.000000 0.000000 0.000000 0.000000 0.000000 0.000000 10.000000 
Rope4_Seg09 0.000000 0.000000 0.000000 0.000000 0.000000 0.000000 10.000000 
L_rear_hand01 0.000000 0.000000 0.000000 0.000000 0.000000 0.000000 10.000000 
L_rear_hand02 0.000000 0.000000 0.000000 0.000000 0.000000 0.000000 10.000000 
L_rear_hand03 0.000000 0.000000 0.000000 0.000000 0.000000 0.000000 10.000000 
#Beginning of Data. Separated by tabs
#Fr	Tx	Ty	Tz	Rx	Ry	Rz	SF
[MASTER]
17 0.000000 0.000000 0.000000 0.001660 0.001660 0.001660 0.000000
18 0.000000 0.000000 0.000000 0.001660 0.001660 0.001660 0.000000
[root]
17 -16.502338 85.772308 1617.055786 -83.079811 0.779967 -107.387100 1619.412964
18 -16.502338 85.772308 1617.055786 -82.128906 0.893925 -107.783104 1619.412964
[chest]
17 -84.512650 -34.090519 0.000000 -2.095410 -0.014396 167.381760 91.129311
18 -84.512650 -34.090519 0.000000 -2.099102 -0.014121 167.419067 91.129311
[L_mid_tent01]
17 27.299097 22.179192 -249.918686 68.735931 12.540410 167.349197 252.381668
18 27.299097 22.179186 -249.918686 69.027069 13.780469 168.001358 252.381668
[R_mid_tent01]
17 23.228794 24.509907 226.238495 160.703568 5.696306 36.036526 228.744751
18 23.228794 24.509907 226.238495 160.204361 5.977783 38.490829 228.744751
[spine01]
17 -0.361383 -0.195265 0.000000 -0.000001 -0.000007 22.052340 0.410763
18 -0.361383 -0.195265 0.000000 -0.000001 -0.000007 22.052340 0.410763
[Bip01_Neck]
17 165.484543 71.581718 0.000119 175.896118 1.177290 24.871183 180.302734
18 165.484543 71.581718 0.000119 175.896118 1.177290 24.871183 180.302734
[L_humerus]
17 -13.983130 -135.272980 -120.471481 -102.180420 0.967259 6.111042 181.680161
18 -13.983130 -135.272980 -120.471481 -102.316116 3.089744 6.028089 181.680161
[R_humerus]
17 -13.983309 -135.273102 125.287651 -143.485779 -39.596546 -127.343239 184.909012
18 -13.983309 -135.273102 125.287651 -149.359497 -43.553860 -118.983574 184.909012
[weapon_bone]
17 235.964890 -300.705902 0.000000 0.000000 -89.951546 -128.212341 382.234833
18 235.964890 -300.705902 0.000000 0.000000 -89.951546 -128.212341 382.234833
[Bip01_Head]
17 161.105255 203.516693 12.112121 1.214906 -1.955432 -31.945793 259.847351
18 161.998001 202.408737 11.960218 1.246698 -1.829435 -32.536579 259.529755
[eye_left_bone]
17 33.947865 159.118134 -73.788170 -114.594864 -86.936508 15.127476 178.649750
18 33.991318 159.072266 -73.623901 -115.582344 -87.069221 16.117813 178.549362
[eye_right_bone]
17 42.217918 160.241577 55.012371 65.334320 -86.939445 15.199025 174.602631
18 42.107388 160.246780 55.171165 64.177536 -87.065887 16.358427 174.630814
[L_forearm]
17 322.776093 0.000000 -0.000119 0.001647 0.001672 -0.883626 322.776093
18 322.776093 0.000000 -0.000119 0.001636 0.001683 -1.610698 322.776093
[L_front_hand]
17 241.149185 -0.042021 -3.300071 -100.757698 -2.107616 -13.139577 241.171753
18 241.149185 -0.042021 -3.300071 -147.691071 -2.107172 -13.138972 241.171753
[L_weapon_bone]
17 156.183838 0.000000 0.000000 0.000014 0.000007 0.000001 156.183838
18 156.183838 0.000000 0.000000 0.000014 0.000007 0.000001 156.183838
[L_front_hand01_01]
17 86.095154 20.947098 -0.655860 -0.366594 -0.477154 75.385574 88.609184
18 86.095154 20.947098 -0.655860 -0.366594 -0.477154 75.385574 88.609184
[L_front_hand02_01]
17 86.935165 -11.437475 24.513514 154.399796 -59.883835 -61.369587 91.046425
18 86.935165 -11.437475 24.513514 154.399796 -59.883835 -61.369587 91.046425
[L_front_hand03_01]
17 86.637497 -14.123976 -20.424902 -153.913849 58.118122 -62.702866 90.126129
18 86.637497 -14.123976 -20.424902 -153.913849 58.118122 -62.702866 90.126129
[L_front_hand01_02]
17 71.020905 -0.000179 0.000030 0.000334 -0.002323 -106.379684 71.020905
18 71.020905 -0.000179 0.000030 0.000334 -0.002323 -106.379684 71.020905
[L_front_hand02_02]
17 71.020927 -0.000119 0.000060 0.000334 -0.002323 -106.379684 71.020927
18 71.020927 -0.000119 0.000060 0.000334 -0.002323 -106.379684 71.020927
[L_front_hand03_02]
17 71.020905 -0.000060 0.000060 0.000334 -0.002323 -106.379684 71.020905
18 71.020905 -0.000060 0.000060 0.000334 -0.002323 -106.379684 71.020905
[R_forearm]
17 322.776428 -0.000060 0.000030 0.201017 -0.072032 -71.955528 322.776428
18 322.776428 -0.000060 0.000030 0.200599 -0.073186 -71.296860 322.776428
[R_front_hand]
17 238.847015 -0.006795 2.210259 -2.635298 -10.645461 -26.312506 238.857239
18 238.847015 -0.006795 2.210259 -2.635298 -10.645461 -26.312506 238.857239
[R_weapon_bone]
17 155.664093 0.002503 -0.000030 0.003487 0.001180 -90.988930 155.664078
18 155.664093 0.002503 -0.000030 0.003487 0.001180 -90.988930 155.664078
[R_front_hand01_01]
17 87.624611 14.231146 22.918642 -154.633499 -59.950619 61.746044 91.683487
18 87.624611 14.231146 22.918642 -154.633499 -59.950619 61.746044 91.683487
[R_front_hand02_01]
17 89.356956 14.367283 -19.491137 154.602661 58.302849 63.744389 92.579636
18 89.356956 14.367283 -19.491137 154.602661 58.302849 63.744389 92.579636
[R_front_hand03_01]
17 87.286232 -22.307278 -0.143439 0.162155 -0.423168 -75.767921 90.091743
18 87.286232 -22.307278 -0.143439 0.162155 -0.423168 -75.767921 90.091743
[R_front_hand01_02]
17 71.020905 0.000060 0.000119 0.002323 -0.000334 106.381714 71.020905
18 71.020905 0.000060 0.000119 0.002323 -0.000334 106.381714 71.020905
[R_front_hand02_02]
17 71.020844 -0.000030 -0.000119 0.002323 -0.000334 106.381714 71.020836
18 71.020844 -0.000030 -0.000119 0.002323 -0.000334 106.381714 71.020836
[R_front_hand03_02]
17 71.020905 0.000000 0.000030 0.002323 -0.000334 106.381714 71.020905
18 71.020905 0.000000 0.000030 0.002323 -0.000334 106.381714 71.020905
[null_rope01_connect]
17 328.732483 0.000000 -0.000238 -164.219513 -24.039616 83.435394 328.732483
18 328.732483 0.000000 -0.000238 -164.893768 -24.815775 84.125481 328.732483
[Rope1_Seg01]
17 0.000000 0.000000 0.000000 85.375641 23.442947 94.290459 0.000000
18 0.000000 0.000000 0.000000 85.119247 24.560295 94.469727 0.000000
[Rope1_Seg02]
17 139.999863 -0.000179 0.000000 2.243626 -3.714898 9.069921 139.999863
18 139.999863 -0.000179 0.000000 2.066076 -3.915986 9.156735 139.999863
[Rope1_Seg03]
17 139.999924 0.000060 -0.000060 4.477207 -3.447449 10.269814 139.999924
18 139.999924 0.000060 -0.000060 4.179207 -3.742900 10.382182 139.999924
[Rope1_Seg04]
17 139.999924 -0.000060 -0.000119 13.476649 -2.728250 14.530760 139.999924
18 139.999924 -0.000060 -0.000119 13.283508 -3.298385 15.015676 139.999924
[Rope1_Seg05]
17 139.999832 0.000119 -0.000060 -3.211332 -1.753678 -0.488532 139.999832
18 139.999832 0.000119 -0.000060 -2.538290 -1.531228 -0.191989 139.999832
[Rope1_Seg06]
17 139.999954 0.000119 -0.000060 -11.345338 -1.961038 -8.406011 139.999954
18 139.999954 0.000119 -0.000060 -11.245209 -1.591787 -8.727058 139.999954
[Rope1_Seg07]
17 139.999985 0.000060 0.000000 -3.267998 -0.323634 -2.987773 139.999985
18 139.999985 0.000060 0.000000 -3.215572 -0.146899 -3.175955 139.999985
[Rope1_Seg09]
17 121.602913 0.000119 -0.000089 2.469671 -1.382322 0.862372 121.602913
18 121.602913 0.000119 -0.000089 59.001331 -1.395686 0.851351 121.602913
[L_mid_hand01]
17 103.859421 1.038730 8.195221 106.469971 -29.040813 -8.698223 104.187431
18 103.859421 1.038730 8.195221 107.577675 -34.828671 -10.787918 104.187431
[L_mid_hand02]
17 105.572853 -4.139662 -10.864139 -141.485748 24.338089 -26.779978 106.211075
18 105.572853 -4.139662 -10.864139 -143.853638 28.010689 -32.143475 106.211075
[L_mid_hand03]
17 104.641464 17.579376 -3.913581 -16.489401 9.091102 31.987377 106.179977
18 104.641464 17.579376 -3.913581 -15.468968 10.758892 37.895123 106.179977
[null_rope02_connect]
17 328.732849 0.000179 -0.000119 40.340424 74.379257 169.513107 328.732849
18 328.732849 0.000179 -0.000119 40.759148 75.256111 172.380020 328.732849
[Rope2_Seg01]
17 0.000095 0.000153 0.000034 109.879044 20.030426 -79.150803 0.000183
18 0.000095 0.000153 0.000036 103.365181 15.477555 -78.240074 0.000184
[Rope2_Seg02]
17 139.999741 -0.000060 -0.000119 20.766010 10.174659 -14.278283 139.999756
18 139.999741 -0.000060 -0.000119 17.738325 10.339561 -12.923120 139.999756
[Rope2_Seg03]
17 140.000107 0.000030 0.000000 24.760620 3.007149 -9.069672 140.000107
18 140.000107 0.000030 0.000000 23.948795 3.991541 -8.708111 140.000107
[Rope2_Seg04]
17 139.999802 0.000000 -0.000060 24.564409 -1.243639 -6.802347 139.999802
18 139.999802 0.000000 -0.000060 24.295799 -0.220935 -6.185335 139.999802
[Rope2_Seg05]
17 139.999985 -0.000060 0.000119 51.197147 -19.472387 -23.227379 139.999985
18 139.999985 -0.000060 0.000119 52.355148 -13.351789 -19.273113 139.999985
[Rope2_Seg06]
17 139.999893 -0.000030 -0.000119 10.349023 -50.424046 -0.877029 139.999893
18 139.999893 -0.000030 -0.000119 16.543596 -50.916035 -4.547869 139.999893
[Rope2_Seg07]
17 139.999893 0.000060 -0.000060 -0.843445 -17.720087 2.851430 139.999893
18 139.999893 0.000060 -0.000060 -0.686928 -21.751303 4.133255 139.999893
[Rope2_Seg09]
17 121.338966 0.000089 -0.000060 33.793236 -1.359788 -0.847141 121.338966
18 121.338966 0.000089 -0.000060 33.793236 -1.359788 -0.847141 121.338966
[R_mid_hand01]
17 104.680779 11.144459 -10.335981 -25.691988 41.382748 56.682842 105.778534
18 104.680779 11.144459 -10.335981 -29.407906 39.088127 50.938274 105.778534
[R_mid_hand02]
17 104.070427 2.443552 8.231699 61.307610 -58.887085 25.644379 104.424065
18 104.070427 2.443552 8.231699 64.732201 -54.470318 21.549225 104.424065
[R_mid_hand03]
17 106.028137 -11.221827 -5.996406 -174.198013 14.736777 -65.507378 106.788818
18 106.028137 -11.221827 -5.996406 -172.927750 14.177896 -60.425365 106.788818
[spine02]
17 129.756927 0.001550 0.000119 0.915781 -3.954270 -20.923088 129.756927
18 129.756927 0.001550 0.000119 0.891498 -3.959237 -20.572542 129.756927
[spine03]
17 78.614067 0.081635 -4.899010 -1.577624 3.972200 -31.527775 78.766602
18 78.614067 0.081635 -4.899010 -1.428978 4.030598 -29.384706 78.766602
[pelvis]
17 169.435242 0.051022 0.000000 -0.062016 -0.179698 15.075164 169.435257
18 169.435242 0.051022 0.000000 -0.061943 -0.179723 15.028609 169.435257
[null_rope03_connect]
17 -1.257226 -2.466202 137.391083 -63.861755 -70.509956 169.960953 137.418976
18 -1.257226 -2.466202 137.391083 -61.930714 -69.722267 165.617264 137.418976
[null_rope04_connect]
17 -1.259640 -2.480268 -137.844437 -63.861755 -70.509956 169.960953 137.872513
18 -1.259640 -2.480268 -137.844437 -61.930714 -69.722267 165.617264 137.872513
[Rope3_Seg01]
17 0.000010 0.000021 -0.000085 -126.569389 23.055975 -64.206779 0.000088
18 0.000010 0.000020 -0.000081 -126.198990 20.904289 -62.733299 0.000084
[Rope3_Seg02]
17 139.999924 -0.000119 0.000060 0.347889 -3.779116 5.569237 139.999924
18 139.999924 -0.000119 0.000060 0.552331 -3.587602 5.825737 139.999924
[Rope3_Seg03]
17 139.999924 -0.000119 0.000119 -0.176776 -5.516649 8.325980 139.999924
18 139.999924 -0.000119 0.000119 0.035650 -5.335922 8.950706 139.999924
[Rope3_Seg04]
17 139.999924 0.000119 0.000000 -1.943315 -8.152838 13.020867 139.999924
18 139.999924 0.000119 0.000000 -1.975219 -7.991558 14.487279 139.999924
[Rope3_Seg05]
17 139.999924 -0.000238 0.000060 -7.820451 -10.574413 24.208950 139.999924
18 139.999924 -0.000238 0.000060 -8.427404 -9.173114 26.324413 139.999924
[Rope3_Seg06]
17 139.999893 -0.000119 -0.000060 -6.217134 -10.566506 10.258204 139.999893
18 139.999893 -0.000119 -0.000060 -7.441596 -10.746759 10.995833 139.999893
[Rope3_Seg07]
17 139.999771 0.000060 -0.000119 -0.070968 -9.777070 -7.224269 139.999771
18 139.999771 0.000060 -0.000119 -0.918478 -12.640775 -6.987063 139.999771
[Rope3_Seg08]
17 139.999985 -0.000060 0.000000 1.285137 -9.352467 -10.603935 139.999985
18 139.999985 -0.000060 0.000000 1.426571 -12.457738 -11.006754 139.999985
[Rope3_Seg09]
17 90.185997 -0.000179 -0.000060 150.188751 -1.358966 -0.849577 90.185997
18 90.185997 -0.000179 -0.000060 126.345985 -1.360507 -0.845382 90.185997
[R_rear_hand01]
17 103.366196 -6.073594 -10.757982 -177.714188 24.565966 -73.910950 104.101845
18 103.366196 -6.073594 -10.757982 -176.971832 24.489786 -72.132683 104.101845
[R_rear_hand02]
17 100.509819 12.039542 -7.992327 -12.874834 36.868488 72.167213 101.543350
18 100.509819 12.039542 -7.992327 -14.049806 36.491398 70.196098 101.543350
[R_rear_hand03]
17 101.539970 5.215704 5.435467 71.484627 -71.816628 21.513800 101.819031
18 101.539970 5.215704 5.435467 72.929390 -70.273865 19.984940 101.819031
[Rope4_Seg01]
17 0.000010 0.000038 -0.000114 128.558075 -53.159019 -176.678650 0.000121
18 0.000010 0.000038 -0.000114 124.367691 -52.610123 -174.018616 0.000121
[Rope4_Seg02]
17 139.999985 0.000060 0.000119 5.205865 -3.716472 2.582047 139.999985
18 139.999985 0.000060 0.000119 5.502748 -3.734135 2.898962 139.999985
[Rope4_Seg03]
17 139.999924 0.000000 -0.000238 9.294964 -5.491506 4.628559 139.999924
18 139.999924 0.000000 -0.000238 9.637691 -5.427062 5.145838 139.999924
[Rope4_Seg04]
17 139.999985 0.000000 0.000119 18.446726 -8.366760 9.926663 139.999985
18 139.999985 0.000000 0.000119 18.184246 -7.915957 10.733235 139.999985
[Rope4_Seg05]
17 139.999802 -0.000060 -0.000119 31.651787 -10.566552 28.170519 139.999802
18 139.999802 -0.000060 -0.000119 28.114159 -7.379441 28.951212 139.999802
[Rope4_Seg06]
17 139.999924 0.000000 0.000060 15.190851 6.430089 28.857149 139.999924
18 139.999924 0.000000 0.000060 13.345315 4.900533 27.035194 139.999924
[Rope4_Seg07]
17 139.999802 0.000000 0.000000 1.935325 4.037605 7.295947 139.999802
18 139.999802 0.000000 0.000000 2.946269 -0.410097 9.044300 139.999802
[Rope4_Seg08]
17 139.999924 0.000000 0.000119 -0.688691 2.667650 4.582737 139.999924
18 139.999924 0.000000 0.000119 -0.015914 0.428354 5.889612 139.999924
[Rope4_Seg09]
17 90.185791 0.000060 0.000060 15.364314 2.227607 0.851247 90.185791
18 90.185791 0.000060 0.000060 -0.184763 2.228787 0.848897 90.185791
[L_rear_hand01]
17 101.696655 -8.392275 -7.654577 -17.229496 -35.260635 115.223587 102.329041
18 101.696655 -8.392275 -7.654577 -19.242418 -34.302242 118.756432 102.329041
[L_rear_hand02]
17 102.726799 -1.568258 5.773216 75.967567 65.877556 163.290314 102.900848
18 102.726799 -1.568258 5.773216 77.431351 62.898323 164.912399 102.900848
[L_rear_hand03]
17 104.552910 9.721220 -10.420293 -174.915207 -24.166666 -112.862358 105.519653
18 104.552910 9.721220 -10.420293 -173.558777 -23.860983 -116.189850 105.519653
